<svg width="125" height="28" viewBox="0 0 125 28" fill="none" xmlns="http://www.w3.org/2000/svg">
<path d="M13.428 21.78V27H10.296C8.064 27 6.324 26.46 5.076 25.38C3.828 24.276 3.204 22.488 3.204 20.016V12.024H0.756001V6.91199H3.204V2.01599H9.36V6.91199H13.392V12.024H9.36V20.088C9.36 20.688 9.504 21.12 9.792 21.384C10.08 21.648 10.56 21.78 11.232 21.78H13.428Z" fill="black"/>
<path d="M26.001 27.288C24.033 27.288 22.257 26.868 20.673 26.028C19.113 25.188 17.877 23.988 16.965 22.428C16.077 20.868 15.633 19.044 15.633 16.956C15.633 14.892 16.089 13.08 17.001 11.52C17.913 9.93599 19.161 8.72399 20.745 7.88399C22.329 7.04399 24.105 6.62399 26.073 6.62399C28.041 6.62399 29.817 7.04399 31.401 7.88399C32.985 8.72399 34.233 9.93599 35.145 11.52C36.057 13.08 36.513 14.892 36.513 16.956C36.513 19.02 36.045 20.844 35.109 22.428C34.197 23.988 32.937 25.188 31.329 26.028C29.745 26.868 27.969 27.288 26.001 27.288ZM26.001 21.96C27.177 21.96 28.173 21.528 28.989 20.664C29.829 19.8 30.249 18.564 30.249 16.956C30.249 15.348 29.841 14.112 29.025 13.248C28.233 12.384 27.249 11.952 26.073 11.952C24.873 11.952 23.877 12.384 23.085 13.248C22.293 14.088 21.897 15.324 21.897 16.956C21.897 18.564 22.281 19.8 23.049 20.664C23.841 21.528 24.825 21.96 26.001 21.96Z" fill="black"/>
<path d="M59.6149 6.91199V27H53.4589V24.264C52.8349 25.152 51.9829 25.872 50.9029 26.424C49.8469 26.952 48.6709 27.216 47.3749 27.216C45.8389 27.216 44.4829 26.88 43.3069 26.208C42.1309 25.512 41.2189 24.516 40.5709 23.22C39.9229 21.924 39.5989 20.4 39.5989 18.648V6.91199H45.7189V17.82C45.7189 19.164 46.0669 20.208 46.7629 20.952C47.4589 21.696 48.3949 22.068 49.5709 22.068C50.7709 22.068 51.7189 21.696 52.4149 20.952C53.1109 20.208 53.4589 19.164 53.4589 17.82V6.91199H59.6149Z" fill="black"/>
<path d="M70.1927 10.26C70.9127 9.15599 71.8127 8.29199 72.8927 7.66799C73.9727 7.01999 75.1727 6.69599 76.4927 6.69599V13.212H74.8007C73.2647 13.212 72.1127 13.548 71.3447 14.22C70.5767 14.868 70.1927 16.02 70.1927 17.676V27H64.0367V6.91199H70.1927V10.26Z" fill="black"/>
<path d="M79.008 16.9201C79.008 14.8561 79.392 13.0441 80.16 11.4841C80.952 9.92411 82.02 8.72411 83.364 7.88411C84.708 7.04411 86.208 6.62411 87.864 6.62411C89.28 6.62411 90.516 6.91211 91.572 7.48811C92.652 8.06411 93.48 8.82011 94.056 9.75611V6.91211H100.212V27.0001H94.056V24.1561C93.456 25.0921 92.616 25.8481 91.536 26.4241C90.48 27.0001 89.244 27.2881 87.828 27.2881C86.196 27.2881 84.708 26.8681 83.364 26.0281C82.02 25.1641 80.952 23.9521 80.16 22.3921C79.392 20.8081 79.008 18.9841 79.008 16.9201ZM94.056 16.9561C94.056 15.4201 93.624 14.2081 92.76 13.3201C91.92 12.4321 90.888 11.9881 89.664 11.9881C88.44 11.9881 87.396 12.4321 86.532 13.3201C85.692 14.1841 85.272 15.3841 85.272 16.9201C85.272 18.4561 85.692 19.6801 86.532 20.5921C87.396 21.4801 88.44 21.9241 89.664 21.9241C90.888 21.9241 91.92 21.4801 92.76 20.5921C93.624 19.7041 94.056 18.4921 94.056 16.9561Z" fill="#FF003D"/>
<path d="M103.442 16.9201C103.442 14.8561 103.826 13.0441 104.594 11.4841C105.386 9.92411 106.454 8.72411 107.798 7.88411C109.142 7.04411 110.642 6.62411 112.298 6.62411C113.618 6.62411 114.818 6.90011 115.898 7.45211C117.002 8.00411 117.866 8.74811 118.49 9.68411V0.360107H124.646V27.0001H118.49V24.1201C117.914 25.0801 117.086 25.8481 116.006 26.4241C114.95 27.0001 113.714 27.2881 112.298 27.2881C110.642 27.2881 109.142 26.8681 107.798 26.0281C106.454 25.1641 105.386 23.9521 104.594 22.3921C103.826 20.8081 103.442 18.9841 103.442 16.9201ZM118.49 16.9561C118.49 15.4201 118.058 14.2081 117.194 13.3201C116.354 12.4321 115.322 11.9881 114.098 11.9881C112.874 11.9881 111.83 12.4321 110.966 13.3201C110.126 14.1841 109.706 15.3841 109.706 16.9201C109.706 18.4561 110.126 19.6801 110.966 20.5921C111.83 21.4801 112.874 21.9241 114.098 21.9241C115.322 21.9241 116.354 21.4801 117.194 20.5921C118.058 19.7041 118.49 18.4921 118.49 16.9561Z" fill="#FF003D"/>
</svg>
